<svg id="svg" version="1.1" xmlns="http://www.w3.org/2000/svg" xmlns:xlink="http://www.w3.org/1999/xlink" width="400" height="399.4211287988423" viewBox="0, 0, 400,399.4211287988423"><g id="svgg"><path id="path0" d="M186.831 5.205 C 185.398 5.324,183.184 5.511,181.910 5.618 C 175.960 6.121,164.267 7.885,159.479 9.002 C 158.126 9.317,155.912 9.823,154.559 10.124 C 145.902 12.054,136.040 15.263,124.313 19.967 C 116.980 22.908,105.008 29.113,97.250 33.994 C 95.897 34.845,93.936 36.067,92.891 36.709 C 91.847 37.351,90.219 38.446,89.273 39.142 C 88.328 39.838,86.056 41.503,84.226 42.842 C 81.368 44.934,76.869 48.435,76.411 48.925 C 76.331 49.010,75.888 49.370,75.425 49.725 C 70.045 53.858,60.527 63.060,54.124 70.319 C 53.090 71.493,52.113 72.594,51.954 72.767 C 50.372 74.489,44.657 81.633,43.307 83.577 C 42.725 84.415,41.777 85.717,41.200 86.472 C 40.048 87.977,34.153 96.859,34.153 97.089 C 34.153 97.168,33.567 98.138,32.851 99.246 C 32.135 100.353,31.548 101.355,31.548 101.473 C 31.548 101.590,31.169 102.283,30.706 103.014 C 29.075 105.582,21.708 119.982,21.708 120.600 C 21.708 120.692,21.243 121.825,20.674 123.118 C 19.317 126.207,19.316 126.209,18.144 129.233 C 16.807 132.680,14.350 139.702,13.891 141.389 C 13.761 141.867,13.304 143.430,12.875 144.863 C 12.447 146.295,12.041 147.793,11.974 148.191 C 11.907 148.589,11.729 149.240,11.578 149.638 C 10.986 151.204,8.407 162.761,7.994 165.702 C 7.904 166.339,7.765 167.175,7.685 167.562 C 7.605 167.948,7.397 169.315,7.224 170.601 C 6.671 174.707,6.637 174.951,6.501 175.687 C 6.428 176.085,6.237 177.909,6.077 179.740 C 5.916 181.570,5.688 184.175,5.570 185.528 C 4.835 193.920,5.600 219.238,6.763 225.036 C 6.826 225.355,6.970 226.331,7.081 227.207 C 8.155 235.659,10.987 248.157,14.024 257.845 C 15.743 263.327,19.095 272.318,21.069 276.739 C 21.379 277.434,22.127 279.110,22.732 280.463 C 25.030 285.609,31.097 296.975,33.896 301.378 C 39.693 310.497,44.990 317.854,49.679 323.303 C 50.020 323.699,51.281 325.214,52.482 326.669 C 55.605 330.456,61.195 336.291,65.852 340.625 C 67.282 341.955,69.038 343.592,69.754 344.261 C 70.905 345.337,73.420 347.495,75.516 349.204 C 75.906 349.522,76.690 350.181,77.259 350.667 C 79.451 352.542,83.644 355.716,83.928 355.716 C 84.092 355.716,84.226 355.851,84.226 356.015 C 84.226 356.179,84.448 356.399,84.719 356.503 C 84.991 356.607,85.414 356.855,85.660 357.054 C 87.030 358.161,89.094 359.608,92.185 361.626 C 94.096 362.874,96.179 364.246,96.816 364.675 C 97.453 365.104,98.886 365.952,100.000 366.560 C 101.114 367.167,102.221 367.823,102.460 368.018 C 105.063 370.143,122.841 378.526,131.309 381.621 C 132.873 382.193,134.479 382.798,134.877 382.965 C 144.323 386.931,165.292 391.567,181.042 393.170 C 188.609 393.941,208.562 394.120,215.051 393.476 C 223.517 392.636,231.612 391.507,237.482 390.350 C 237.800 390.287,238.582 390.146,239.219 390.036 C 240.569 389.802,250.678 387.360,251.954 386.959 C 252.431 386.809,254.190 386.286,255.861 385.798 C 257.533 385.310,259.161 384.798,259.479 384.662 C 259.797 384.525,260.970 384.131,262.084 383.787 C 282.585 377.445,309.007 362.393,326.312 347.197 C 327.412 346.232,329.040 344.801,329.930 344.018 C 335.562 339.064,344.448 329.846,349.065 324.168 C 349.777 323.292,350.717 322.185,351.155 321.708 C 351.593 321.230,351.952 320.747,351.952 320.634 C 351.953 320.520,352.194 320.195,352.488 319.910 C 352.781 319.625,353.843 318.285,354.848 316.932 C 355.853 315.579,357.019 314.016,357.439 313.459 C 360.558 309.328,367.365 298.548,370.612 292.599 C 371.892 290.255,376.845 280.262,376.845 280.025 C 376.845 279.962,377.227 279.090,377.693 278.088 C 380.717 271.589,383.608 263.701,386.632 253.690 C 387.501 250.814,388.851 245.455,389.730 241.389 C 390.007 240.109,390.466 237.898,390.571 237.337 C 390.646 236.939,390.967 235.311,391.283 233.719 C 391.600 232.127,392.005 229.653,392.182 228.220 C 392.360 226.787,392.561 225.224,392.628 224.747 C 392.767 223.766,393.280 219.552,393.474 217.800 C 394.183 211.405,394.431 188.109,393.823 184.949 C 393.747 184.551,393.597 183.119,393.491 181.766 C 393.312 179.491,392.372 171.857,392.066 170.188 C 391.902 169.295,391.629 167.525,391.420 165.991 C 391.333 165.355,391.069 163.922,390.834 162.808 C 390.599 161.693,390.359 160.456,390.301 160.058 C 390.243 159.660,389.979 158.423,389.716 157.308 C 389.081 154.623,388.997 154.252,388.828 153.401 C 388.749 153.003,388.539 152.156,388.360 151.520 C 388.182 150.883,387.990 150.101,387.934 149.783 C 387.878 149.465,387.558 148.292,387.224 147.178 C 386.890 146.064,386.227 143.849,385.751 142.258 C 385.275 140.666,384.776 139.103,384.642 138.784 C 384.508 138.466,383.804 136.447,383.076 134.298 C 381.788 130.493,380.780 127.828,379.738 125.470 C 379.457 124.834,378.872 123.466,378.439 122.431 C 378.006 121.397,377.339 119.873,376.957 119.045 C 376.575 118.217,376.134 117.240,375.976 116.874 C 375.818 116.508,375.562 116.013,375.407 115.774 C 375.252 115.535,374.646 114.298,374.059 113.025 C 373.473 111.751,372.686 110.221,372.310 109.624 C 371.935 109.027,371.715 108.538,371.821 108.538 C 371.928 108.538,371.814 108.310,371.569 108.032 C 371.323 107.753,370.868 107.004,370.557 106.368 C 368.589 102.343,363.235 93.505,362.607 93.247 C 362.479 93.193,362.373 93.021,362.373 92.863 C 362.373 92.494,359.482 88.165,359.150 88.037 C 359.013 87.984,358.900 87.813,358.900 87.658 C 358.900 87.401,357.473 85.324,356.531 84.210 C 356.322 83.962,355.697 83.115,355.143 82.328 C 354.112 80.863,349.416 75.047,347.793 73.225 C 347.296 72.666,346.045 71.234,345.014 70.041 C 338.832 62.891,329.042 53.587,321.958 48.131 C 321.502 47.780,320.738 47.143,320.260 46.716 C 319.783 46.289,318.350 45.176,317.077 44.241 C 315.803 43.307,314.577 42.388,314.351 42.199 C 313.562 41.537,309.663 38.787,309.050 38.459 C 308.709 38.276,308.292 38.005,308.122 37.856 C 307.592 37.388,302.956 34.435,301.592 33.696 C 300.876 33.308,299.443 32.453,298.408 31.797 C 297.373 31.141,295.810 30.214,294.935 29.738 C 294.059 29.263,292.822 28.578,292.185 28.218 C 287.978 25.835,277.728 20.998,272.214 18.793 C 263.218 15.196,247.421 10.376,240.648 9.161 C 240.180 9.078,238.886 8.815,237.771 8.577 C 236.657 8.339,235.224 8.070,234.588 7.978 C 233.951 7.887,233.104 7.750,232.706 7.674 C 231.151 7.379,230.038 7.213,226.773 6.785 C 226.136 6.701,224.768 6.507,223.734 6.353 C 222.699 6.200,221.006 6.000,219.971 5.909 C 218.936 5.818,217.113 5.613,215.919 5.453 C 213.268 5.097,190.446 4.902,186.831 5.205 M163.720 72.004 C 163.744 96.563,163.838 116.849,163.928 117.084 C 164.064 117.439,165.013 117.511,169.600 117.511 L 175.109 117.511 175.123 116.570 C 175.131 116.053,175.164 102.540,175.196 86.541 L 175.253 57.453 184.515 57.453 L 193.777 57.453 193.851 87.092 C 193.904 108.408,194.015 116.841,194.248 117.121 C 194.498 117.423,195.808 117.511,200.035 117.511 L 205.499 117.511 205.499 102.456 L 205.499 87.402 214.834 87.478 L 224.168 87.554 224.313 102.460 L 224.457 117.366 239.436 117.441 L 254.414 117.516 254.414 162.208 C 254.414 186.788,254.493 207.105,254.590 207.357 C 254.741 207.752,255.514 207.815,260.234 207.815 L 265.702 207.815 265.702 157.197 L 265.702 106.580 265.051 106.405 C 264.692 106.309,257.918 106.229,249.997 106.227 L 235.595 106.223 235.670 66.787 L 235.745 27.352 260.058 27.352 L 284.370 27.352 284.444 51.737 L 284.518 76.122 275.110 76.122 L 265.702 76.122 265.702 61.253 L 265.702 46.384 264.219 46.188 C 261.881 45.877,254.881 46.048,254.635 46.421 C 254.343 46.864,254.365 86.595,254.657 87.056 C 254.842 87.346,258.046 87.439,269.631 87.490 L 284.370 87.554 284.443 156.913 L 284.516 226.271 283.779 226.412 C 283.373 226.490,272.399 226.537,259.393 226.518 L 235.745 226.483 235.601 181.476 L 235.456 136.469 190.232 136.396 L 145.007 136.322 145.007 91.496 C 145.007 55.975,144.932 46.613,144.645 46.394 C 144.444 46.240,141.972 46.128,139.074 46.142 L 133.864 46.165 133.791 96.654 C 133.733 136.854,133.792 147.190,134.080 147.373 C 134.280 147.500,141.041 147.605,149.105 147.608 L 163.766 147.612 163.721 171.997 L 163.676 196.382 139.428 196.415 C 126.092 196.433,115.112 196.336,115.028 196.200 C 114.777 195.795,114.899 177.865,115.153 177.778 C 115.282 177.734,122.019 177.669,130.125 177.633 L 144.863 177.569 144.942 172.235 C 144.985 169.302,144.903 166.784,144.758 166.640 C 144.608 166.489,138.208 166.389,129.723 166.406 C 116.061 166.432,114.943 166.397,114.856 165.944 C 114.804 165.674,114.794 134.364,114.835 96.366 L 114.908 27.279 139.292 27.315 L 163.676 27.352 163.720 72.004 M224.242 36.686 L 224.317 46.020 214.908 46.020 L 205.499 46.020 205.499 36.655 L 205.499 27.289 214.834 27.320 L 224.168 27.352 224.242 36.686 M224.244 66.779 L 224.321 76.106 215.030 76.186 C 209.921 76.230,205.686 76.212,205.620 76.146 C 205.553 76.079,205.499 71.825,205.499 66.693 L 205.499 57.360 214.834 57.407 L 224.168 57.453 224.244 66.779 M193.922 157.023 L 193.922 166.433 184.588 166.357 L 175.253 166.281 175.200 156.946 L 175.148 147.612 184.535 147.612 L 193.922 147.612 193.922 157.023 M181.413 173.138 C 181.487 176.212,181.547 176.539,182.064 176.703 C 182.761 176.924,182.799 177.299,182.151 177.547 C 181.769 177.694,181.743 177.806,182.026 178.085 C 182.580 178.631,183.207 177.556,183.246 175.994 C 183.304 173.713,183.232 173.813,184.877 173.719 L 186.397 173.631 186.397 175.060 C 186.397 176.648,186.645 176.833,188.784 176.841 C 189.554 176.844,189.870 176.971,189.870 177.279 C 189.870 177.518,189.718 177.713,189.532 177.713 C 189.346 177.713,189.280 177.799,189.386 177.905 C 189.829 178.348,190.773 177.000,190.728 175.988 C 190.619 173.565,190.581 173.622,192.249 173.719 L 193.760 173.806 193.677 175.145 C 193.573 176.799,193.697 176.835,199.490 176.864 C 202.895 176.881,203.505 176.953,203.737 177.368 C 203.887 177.635,204.112 177.751,204.237 177.625 C 205.012 176.850,203.807 176.410,200.792 176.368 C 195.813 176.297,194.436 175.632,194.384 173.272 C 194.328 170.726,195.889 169.506,198.998 169.665 L 200.724 169.754 200.812 170.822 C 200.916 172.069,200.032 172.880,198.829 172.642 C 198.080 172.494,196.519 172.992,196.184 173.486 C 195.810 174.038,196.295 174.278,196.822 173.801 C 197.527 173.162,203.374 173.156,204.605 173.793 C 206.273 174.655,206.850 176.663,205.894 178.281 C 204.981 179.827,204.392 179.958,198.842 179.857 C 192.334 179.739,192.783 179.739,189.580 179.862 C 188.035 179.922,186.677 179.844,186.481 179.684 C 186.282 179.522,185.720 179.491,185.178 179.613 C 183.464 179.999,182.210 179.992,181.587 179.592 C 181.116 179.289,180.897 179.277,180.632 179.541 C 180.396 179.778,178.813 179.884,175.535 179.884 C 169.453 179.884,169.066 179.602,169.293 175.326 C 169.314 174.922,169.585 174.819,170.631 174.819 C 171.628 174.819,171.981 174.941,172.099 175.326 C 172.500 176.622,172.658 176.699,174.995 176.749 C 177.125 176.795,177.275 176.839,177.210 177.401 C 177.135 178.056,177.337 178.140,177.993 177.726 C 178.320 177.519,178.434 176.649,178.493 173.904 C 178.587 169.489,178.563 169.554,180.099 169.665 L 181.331 169.754 181.413 173.138 M217.304 172.921 C 217.413 177.073,217.105 176.845,222.597 176.845 C 226.651 176.845,227.211 176.903,227.460 177.349 C 227.615 177.627,227.845 177.751,227.971 177.625 C 228.732 176.864,227.551 176.436,224.578 176.394 C 218.760 176.312,216.841 174.592,218.655 171.084 C 219.617 169.222,224.395 169.009,224.546 170.822 C 224.647 172.033,223.741 172.901,222.520 172.764 C 221.211 172.617,219.971 173.087,219.971 173.729 C 219.971 174.282,220.011 174.294,220.478 173.874 C 221.082 173.329,226.890 173.113,228.075 173.592 C 230.471 174.560,230.833 177.296,228.812 179.161 C 228.037 179.876,227.971 179.884,222.861 179.884 L 217.693 179.884 217.069 181.265 C 216.067 183.482,213.024 184.294,210.800 182.938 C 208.348 181.443,208.398 177.274,210.865 177.475 C 211.961 177.565,212.016 177.616,212.101 178.654 C 212.191 179.739,211.724 180.169,211.393 179.305 C 211.181 178.754,210.709 178.739,210.709 179.285 C 210.709 180.511,213.569 181.193,214.135 180.101 C 214.280 179.823,214.418 177.451,214.442 174.832 C 214.490 169.617,214.512 169.552,216.208 169.678 L 217.221 169.754 217.304 172.921 M189.861 171.223 C 189.875 171.708,188.592 172.791,188.273 172.563 C 187.288 171.858,187.171 171.338,187.838 170.628 C 188.514 169.909,189.834 170.298,189.861 171.223 M192.629 170.777 C 193.406 171.636,192.349 172.792,191.355 172.171 C 190.613 171.707,190.585 171.416,191.217 170.717 C 191.823 170.048,191.974 170.054,192.629 170.777 M177.081 173.155 C 177.031 173.672,176.860 174.100,176.700 174.107 C 175.815 174.140,174.819 174.597,174.819 174.969 C 174.819 175.454,175.297 175.555,175.448 175.102 C 175.744 174.216,177.713 174.441,177.713 175.360 C 177.713 176.303,177.729 176.294,175.832 176.391 C 173.654 176.502,173.172 173.521,175.223 172.628 C 176.759 171.959,177.184 172.080,177.081 173.155 M66.570 175.676 C 66.570 176.547,65.472 177.107,62.808 177.596 C 60.207 178.073,54.189 181.809,50.664 185.135 C 35.730 199.225,38.629 221.095,56.006 225.443 C 61.229 226.750,62.518 226.535,62.518 224.360 C 62.518 223.699,65.223 217.265,65.702 216.787 C 65.782 216.708,66.043 216.254,66.281 215.778 C 66.520 215.303,66.870 214.717,67.061 214.476 C 67.251 214.235,67.988 213.256,68.700 212.301 C 74.075 205.083,82.470 199.338,87.898 199.161 C 99.833 198.774,100.879 212.869,89.581 221.845 C 88.785 222.478,88.068 223.069,87.988 223.157 C 87.405 223.808,80.266 227.496,79.590 227.496 C 79.429 227.496,79.071 227.617,78.795 227.765 C 77.401 228.510,71.422 229.830,67.680 230.219 C 65.124 230.485,65.123 230.486,65.123 232.609 C 65.123 234.354,65.253 235.177,66.051 238.495 C 70.063 255.176,91.318 261.894,105.694 251.025 C 107.483 249.672,108.070 249.531,108.877 250.262 C 109.744 251.046,109.498 251.674,107.742 253.163 C 96.641 262.580,82.541 263.051,72.303 254.346 C 70.273 252.620,68.017 250.383,68.017 250.096 C 68.017 249.950,67.907 249.788,67.773 249.735 C 67.307 249.551,64.851 245.786,64.094 244.098 C 63.234 242.177,62.755 240.991,62.793 240.880 C 62.807 240.838,62.618 240.415,62.372 239.939 C 62.126 239.463,61.981 239.074,62.050 239.074 C 62.120 239.074,61.997 238.325,61.779 237.410 C 61.560 236.494,61.376 234.613,61.371 233.230 C 61.360 230.609,61.281 230.437,59.981 230.216 C 59.546 230.143,58.467 229.955,57.584 229.800 C 43.397 227.309,35.996 216.738,38.084 201.948 C 38.410 199.637,39.829 195.107,40.830 193.180 C 45.737 183.733,53.863 176.915,62.192 175.256 C 65.617 174.573,66.570 174.665,66.570 175.676 M184.815 182.623 C 184.130 183.379,183.764 183.356,183.156 182.518 C 182.688 181.875,182.694 181.811,183.266 181.197 L 183.867 180.551 184.608 181.292 C 185.331 182.016,185.336 182.047,184.815 182.623 M225.301 186.369 C 226.298 187.471,224.787 188.820,223.769 187.736 C 223.212 187.143,223.199 187.041,223.610 186.455 C 224.158 185.672,224.648 185.647,225.301 186.369 M183.713 191.586 C 183.795 195.666,183.373 195.350,188.775 195.384 C 192.316 195.407,193.384 195.504,193.651 195.826 C 194.093 196.358,194.501 196.352,194.501 195.813 C 194.501 195.030,193.377 194.766,190.228 194.810 C 185.749 194.874,184.609 194.245,184.575 191.692 C 184.540 189.096,185.920 188.038,189.138 188.193 L 190.883 188.278 190.943 189.365 C 191.015 190.659,190.218 191.348,188.673 191.325 C 187.015 191.301,186.700 191.395,186.519 191.966 C 186.284 192.706,186.657 193.034,187.011 192.400 C 187.256 191.963,187.772 191.896,190.875 191.896 L 194.456 191.896 195.347 192.786 C 195.837 193.276,196.237 193.797,196.237 193.944 C 196.237 195.326,198.387 195.724,198.856 194.428 C 199.662 192.203,202.179 191.549,203.854 193.129 C 206.384 195.515,204.079 199.307,200.782 198.183 C 199.929 197.893,199.357 197.842,199.026 198.028 C 198.217 198.480,196.852 198.386,196.244 197.835 C 195.696 197.339,195.642 197.340,194.870 197.863 C 194.148 198.353,193.464 198.408,188.091 198.408 C 180.353 198.408,180.897 198.824,180.897 192.912 C 180.897 187.991,180.870 188.073,182.479 188.192 L 183.647 188.278 183.713 191.586 M226.389 189.711 C 227.316 190.101,227.786 191.697,227.786 194.461 C 227.786 198.285,227.219 198.625,221.100 198.470 C 218.122 198.395,217.704 198.138,217.704 196.381 C 217.704 194.766,217.467 194.022,216.880 193.797 C 216.188 193.532,216.051 193.847,216.596 194.449 C 217.868 195.855,216.954 199.070,215.051 199.881 C 211.380 201.445,207.815 199.702,207.815 196.343 L 207.815 194.501 209.262 194.501 L 210.709 194.501 210.709 195.645 C 210.709 196.740,210.756 196.798,211.795 196.986 C 213.232 197.245,213.406 197.370,213.003 197.855 C 212.618 198.319,212.955 198.390,213.603 197.981 C 213.923 197.780,214.076 196.959,214.182 194.874 L 214.327 192.041 216.052 191.952 C 218.845 191.808,220.273 192.610,220.659 194.539 L 220.825 195.369 223.427 195.369 C 225.768 195.369,226.061 195.309,226.352 194.765 C 226.770 193.984,226.499 193.720,225.898 194.322 C 225.103 195.117,221.760 194.979,221.445 194.139 C 220.240 190.924,223.125 188.340,226.389 189.711 M223.806 192.583 C 223.806 193.106,223.964 193.271,224.467 193.271 C 224.932 193.271,225.166 193.068,225.259 192.583 C 225.371 191.995,225.276 191.896,224.598 191.896 C 223.957 191.896,223.806 192.027,223.806 192.583 M176.605 192.664 C 177.293 193.286,177.273 193.589,176.500 194.260 C 175.529 195.102,174.095 193.725,174.954 192.775 C 175.601 192.060,175.914 192.039,176.605 192.664 M201.158 195.116 C 201.158 195.414,201.158 195.753,201.158 195.868 C 201.158 196.532,202.454 196.011,202.507 195.325 C 202.554 194.706,202.440 194.573,201.861 194.573 C 201.366 194.573,201.158 194.734,201.158 195.116 M180.029 197.708 C 180.029 200.883,178.996 202.026,176.126 202.026 C 172.556 202.026,171.492 200.779,171.605 196.728 L 171.635 195.627 173.010 195.715 L 174.385 195.803 174.474 197.033 C 174.562 198.244,174.117 198.744,173.766 197.829 C 173.591 197.374,173.082 197.226,173.082 197.630 C 173.082 198.265,174.329 199.132,175.241 199.132 C 176.966 199.132,177.135 198.950,177.135 197.095 C 177.135 195.257,177.353 195.074,179.233 195.327 C 180.025 195.434,180.029 195.447,180.029 197.708 M211.732 203.173 C 211.059 203.916,210.870 203.911,210.142 203.130 L 209.552 202.497 210.189 201.819 L 210.825 201.142 211.545 201.862 C 212.249 202.566,212.253 202.597,211.732 203.173 M215.004 201.832 C 216.011 202.903,214.411 204.454,213.372 203.415 C 212.878 202.922,212.939 202.517,213.615 201.791 C 214.334 201.019,214.238 201.016,215.004 201.832 M87.554 202.597 C 81.763 204.076,73.850 210.824,69.609 217.896 C 69.450 218.162,69.245 218.444,69.153 218.524 C 68.655 218.955,65.991 224.923,65.991 225.607 L 65.991 226.413 67.656 226.221 C 76.563 225.193,84.736 221.541,90.444 216.039 C 92.836 213.734,93.344 212.466,93.335 208.828 C 93.322 203.646,91.430 201.606,87.554 202.597 M205.600 207.166 C 206.067 207.925,206.117 210.130,205.668 210.130 C 205.406 210.130,205.117 209.935,205.025 209.696 C 204.933 209.457,204.742 209.262,204.600 209.262 C 204.129 209.262,204.332 209.996,204.920 210.420 C 205.437 210.792,205.499 211.169,205.499 213.920 L 205.499 217.003 204.324 217.191 C 203.678 217.294,203.026 217.303,202.877 217.211 C 202.440 216.941,202.526 207.311,202.967 207.162 C 203.613 206.943,205.465 206.946,205.600 207.166 M133.575 217.077 L 133.575 226.483 124.373 226.509 C 119.312 226.523,115.101 226.420,115.015 226.281 C 114.896 226.088,114.847 217.816,114.905 207.761 C 114.905 207.652,119.106 207.586,124.240 207.616 L 133.575 207.670 133.575 217.077 M163.643 208.047 C 164.112 209.681,163.763 226.286,163.256 226.419 C 162.069 226.729,145.308 226.556,145.086 226.231 C 144.963 226.052,144.900 221.788,144.946 216.756 L 145.030 207.608 154.266 207.581 C 162.720 207.558,163.514 207.597,163.643 208.047 M190.921 211.312 C 191.468 211.649,191.982 212.253,192.090 212.684 C 192.430 214.038,192.901 214.254,195.749 214.355 C 197.212 214.407,198.701 214.523,199.059 214.611 C 199.517 214.724,199.711 214.643,199.711 214.338 C 199.711 213.773,198.966 213.619,195.803 213.531 L 193.198 213.459 193.110 212.084 L 193.022 210.709 195.391 210.709 C 198.112 210.709,199.395 211.274,200.002 212.739 C 200.199 213.216,200.703 213.772,201.121 213.974 C 201.961 214.381,202.020 215.257,201.286 216.404 C 200.774 217.204,198.856 217.461,195.080 217.234 C 193.567 217.143,192.200 217.075,192.041 217.082 C 191.881 217.090,190.514 217.124,189.001 217.159 L 186.252 217.221 186.165 215.712 L 186.078 214.202 187.783 214.302 C 188.721 214.357,189.781 214.559,190.138 214.750 C 191.018 215.221,191.146 214.998,190.434 214.234 C 189.989 213.756,189.512 213.603,188.460 213.603 L 187.072 213.603 187.048 212.518 C 187.035 211.921,187.074 211.270,187.135 211.071 C 187.321 210.469,189.815 210.628,190.921 211.312 M211.426 211.048 C 212.906 211.722,213.381 213.016,213.269 216.065 C 213.131 219.861,212.424 220.639,208.969 220.796 L 206.657 220.901 206.657 219.423 C 206.657 217.787,206.717 217.756,209.592 217.926 C 210.367 217.972,210.807 217.815,211.256 217.333 C 212.157 216.366,212.000 216.136,210.857 216.748 C 208.397 218.067,206.669 217.272,206.661 214.819 C 206.652 211.577,208.821 209.861,211.426 211.048 M209.136 213.314 C 208.905 213.778,209.490 214.619,210.058 214.639 C 210.579 214.658,210.709 214.506,210.709 213.874 C 210.709 213.158,209.438 212.705,209.136 213.314 M211.709 231.439 C 212.360 231.689,213.059 233.140,212.834 233.773 C 211.998 236.125,208.683 235.775,208.683 233.335 C 208.683 231.651,210.042 230.799,211.709 231.439 M196.747 232.600 C 197.464 232.792,197.764 233.600,197.804 235.446 L 197.829 236.614 199.590 236.517 C 204.712 236.238,208.050 241.734,205.460 246.182 C 203.594 249.386,198.581 250.185,195.041 247.842 L 193.922 247.101 193.922 239.952 C 193.922 236.020,194.009 232.716,194.115 232.610 C 194.354 232.371,195.870 232.365,196.747 232.600 M237.478 232.812 C 237.873 233.101,238.053 233.686,238.147 234.983 C 238.224 236.049,238.406 236.751,238.602 236.741 C 238.782 236.732,239.541 236.623,240.290 236.500 C 241.445 236.309,241.881 236.388,243.181 237.023 C 245.635 238.223,245.876 238.878,245.876 244.356 L 245.876 248.914 244.377 248.914 C 242.120 248.915,241.968 248.647,241.968 244.669 C 241.968 240.597,241.587 239.650,239.952 239.657 C 238.249 239.664,238.229 239.718,238.141 244.440 L 238.061 248.770 236.931 248.862 C 235.422 248.986,234.549 248.739,234.308 248.121 C 234.080 247.536,234.096 233.033,234.325 232.662 C 234.568 232.269,236.886 232.379,237.478 232.812 M127.866 234.025 C 128.438 234.426,128.509 234.728,128.509 236.758 C 128.509 240.053,128.297 240.152,133.285 234.539 C 134.102 233.620,134.215 233.580,135.190 233.858 C 137.596 234.544,137.396 236.222,134.550 239.218 L 132.502 241.375 133.369 242.468 C 133.846 243.068,134.673 243.964,135.208 244.458 C 137.559 246.629,137.896 247.589,136.644 248.543 C 135.148 249.682,134.104 249.054,129.851 244.462 C 128.621 243.133,128.551 243.231,128.443 246.454 L 128.365 248.770 126.959 248.859 C 124.440 249.020,124.457 249.074,124.457 240.959 C 124.457 237.110,124.544 233.874,124.650 233.767 C 125.018 233.400,127.226 233.577,127.866 234.025 M157.742 234.732 C 158.148 235.138,158.321 235.697,158.321 236.599 L 158.321 237.887 159.956 237.974 C 162.904 238.131,162.904 240.698,159.956 240.869 L 158.466 240.955 158.380 243.080 C 158.278 245.622,158.495 245.961,160.298 246.078 C 162.802 246.239,162.161 248.765,159.526 249.119 C 157.828 249.346,155.305 248.483,154.827 247.511 C 154.264 246.367,154.066 234.749,154.603 234.409 C 155.341 233.942,157.137 234.126,157.742 234.732 M295.931 236.533 C 296.725 237.666,295.922 238.910,293.800 239.834 C 290.057 241.465,285.956 244.002,285.968 244.680 C 285.971 244.860,286.624 245.854,287.419 246.889 C 288.214 247.923,289.156 249.154,289.512 249.622 C 289.868 250.091,290.779 251.133,291.537 251.938 C 293.141 253.642,293.428 254.308,292.818 254.918 C 291.866 255.870,288.539 253.195,284.090 247.902 C 280.590 243.736,280.616 243.463,284.779 240.708 C 291.849 236.031,294.805 234.924,295.931 236.533 M147.982 236.926 C 151.042 237.969,152.623 241.427,151.647 244.943 C 150.223 250.070,142.293 250.700,139.815 245.883 C 137.521 241.426,140.373 236.556,145.317 236.487 C 146.045 236.477,147.244 236.674,147.982 236.926 M173.392 237.265 C 176.471 238.825,177.633 242.496,176.117 245.876 C 174.213 250.119,166.863 250.257,164.691 246.090 C 161.617 240.192,167.464 234.261,173.392 237.265 M230.188 237.060 C 230.906 237.400,230.988 237.576,230.911 238.620 C 230.816 239.925,230.994 239.872,227.900 239.517 C 226.710 239.380,226.290 239.454,225.744 239.897 L 225.065 240.446 225.977 240.918 C 226.478 241.177,227.099 241.389,227.356 241.389 C 230.767 241.389,233.064 245.712,230.751 247.778 C 227.678 250.524,219.636 248.857,221.784 245.919 C 222.128 245.450,222.265 245.448,223.968 245.884 C 225.852 246.367,227.344 246.256,227.590 245.615 C 227.847 244.945,227.323 244.548,225.588 244.098 C 220.421 242.758,219.762 238.452,224.457 236.708 C 225.332 236.383,229.267 236.625,230.188 237.060 M256.822 236.779 C 262.540 238.367,262.481 247.322,256.741 248.916 C 252.185 250.182,248.336 247.346,248.336 242.724 C 248.336 238.267,252.266 235.514,256.822 236.779 M272.575 237.154 C 278.724 240.334,276.043 249.476,269.084 249.058 L 267.400 248.956 267.466 250.769 C 267.550 253.082,267.441 253.229,265.698 253.149 C 263.509 253.048,263.541 253.146,263.452 246.263 C 263.344 237.959,263.351 237.933,266.211 236.862 C 267.585 236.347,271.348 236.520,272.575 237.154 M182.240 236.980 C 182.954 237.441,183.358 239.211,183.213 241.245 C 182.932 245.179,183.498 246.194,185.850 245.969 L 186.831 245.876 186.975 241.389 L 187.120 236.903 188.380 236.813 C 190.608 236.653,190.738 236.957,190.738 242.321 C 190.738 248.545,190.405 248.962,185.384 249.026 C 182.262 249.066,180.634 248.353,179.710 246.541 C 179.154 245.451,178.857 237.448,179.354 236.951 C 179.613 236.691,181.827 236.713,182.240 236.980 M212.301 237.441 C 212.672 238.007,212.735 239.038,212.669 243.447 L 212.590 248.770 211.007 248.860 C 208.697 248.991,208.683 248.954,208.683 242.516 C 208.683 236.548,208.591 236.819,210.630 236.781 C 211.611 236.763,211.942 236.894,212.301 237.441 M144.007 240.218 C 143.063 241.260,143.035 244.364,143.961 245.290 C 145.699 247.028,147.742 245.586,147.682 242.664 C 147.629 240.041,145.468 238.603,144.007 240.218 M169.111 240.087 C 167.618 241.144,167.765 244.851,169.332 245.658 C 171.074 246.556,172.552 245.346,172.552 243.020 C 172.552 240.385,170.800 238.893,169.111 240.087 M198.032 240.000 C 197.600 240.432,197.563 244.673,197.984 245.460 C 198.628 246.664,201.114 246.077,201.736 244.574 C 202.958 241.624,200.027 238.005,198.032 240.000 M253.612 239.846 C 252.449 240.314,252.057 243.116,252.911 244.863 C 254.091 247.276,256.966 245.792,257.005 242.750 C 257.035 240.405,255.496 239.088,253.612 239.846 M267.614 240.111 C 267.204 241.181,267.424 245.663,267.896 245.845 C 270.908 247.000,273.274 242.459,270.778 240.312 C 269.851 239.515,267.891 239.390,267.614 240.111 M113.025 245.024 C 118.282 245.639,119.283 246.228,118.653 248.336 C 118.534 248.734,118.217 250.036,117.947 251.230 C 117.461 253.386,116.029 257.948,115.404 259.334 C 114.492 261.359,112.658 262.255,111.598 261.195 C 110.840 260.437,111.005 259.502,112.461 256.295 C 113.112 254.862,114.288 251.142,114.490 249.879 L 114.679 248.697 112.549 248.253 C 110.378 247.800,107.525 247.256,106.223 247.047 C 105.825 246.984,104.971 246.922,104.324 246.910 C 102.658 246.880,101.947 246.307,102.385 245.347 C 102.883 244.254,105.705 244.168,113.025 245.024 M218.326 244.906 C 220.261 245.924,219.693 248.814,217.501 249.105 C 215.862 249.323,214.901 248.302,215.131 246.588 C 215.371 244.800,216.748 244.075,218.326 244.906 M295.520 246.016 C 308.621 247.102,317.684 254.789,320.267 267.004 C 320.713 269.112,320.828 277.148,320.434 278.654 C 320.278 279.251,319.989 280.391,319.792 281.187 C 318.947 284.607,316.447 289.172,313.902 291.944 C 312.753 293.195,312.697 293.396,313.325 294.042 C 317.927 298.776,320.988 306.320,320.607 311.987 C 320.185 318.281,315.512 326.498,310.579 329.617 C 310.173 329.874,309.385 330.436,308.828 330.866 C 307.386 331.978,302.691 334.319,302.158 334.191 C 302.071 334.170,301.681 334.359,301.290 334.609 C 300.591 335.058,299.518 335.377,296.408 336.060 C 294.669 336.442,287.044 336.583,285.239 336.266 C 282.877 335.851,282.302 335.712,280.465 335.110 C 275.676 333.540,271.780 331.038,272.380 329.917 C 272.782 329.167,273.521 329.242,275.308 330.214 C 285.465 335.741,301.484 333.895,309.747 326.245 C 314.800 321.567,317.711 313.913,316.537 308.393 C 315.788 304.870,314.005 301.148,311.685 298.264 C 309.696 295.791,309.498 295.734,307.521 297.064 C 306.728 297.598,305.773 298.132,305.400 298.250 C 305.027 298.367,303.972 298.836,303.055 299.291 C 296.208 302.689,280.893 303.193,275.109 300.212 C 264.788 294.893,268.192 282.968,280.582 281.038 C 289.084 279.714,302.444 283.836,308.489 289.649 C 309.959 291.063,310.742 290.499,313.411 286.107 C 317.468 279.430,318.226 272.629,315.728 265.325 C 314.253 261.010,310.269 255.592,307.411 254.013 C 307.155 253.871,306.686 253.523,306.368 253.239 C 304.063 251.181,296.611 248.625,292.914 248.625 C 291.675 248.625,291.172 248.207,291.172 247.178 C 291.172 246.494,291.628 245.724,292.026 245.735 C 292.114 245.738,293.686 245.864,295.520 246.016 M152.501 261.183 C 154.796 265.564,154.934 265.759,156.126 266.311 C 162.342 269.190,162.879 270.880,158.321 273.212 C 155.406 274.703,154.876 275.222,153.134 278.303 C 151.356 281.447,150.571 282.063,149.251 281.356 C 148.584 281.000,148.329 280.605,146.373 276.908 C 145.560 275.371,145.274 275.115,142.860 273.764 C 137.497 270.763,137.487 269.927,142.775 267.022 C 145.594 265.473,145.594 265.473,147.621 261.461 C 149.058 258.617,151.095 258.501,152.501 261.183 M213.025 266.294 L 213.025 268.333 211.071 268.248 L 209.117 268.162 209.032 266.208 L 208.946 264.255 210.985 264.255 L 213.025 264.255 213.025 266.294 M149.503 266.644 C 149.190 267.161,148.840 267.799,148.727 268.062 C 148.613 268.325,147.860 268.911,147.053 269.364 C 145.256 270.374,145.256 270.350,147.038 271.320 C 147.989 271.838,148.684 272.478,149.053 273.175 C 150.087 275.131,150.067 275.127,151.034 273.555 C 151.527 272.754,152.262 271.896,152.666 271.649 C 153.070 271.403,153.755 270.984,154.188 270.719 L 154.975 270.236 153.826 269.720 C 152.288 269.028,151.926 268.691,150.990 267.077 C 150.044 265.446,150.202 265.492,149.503 266.644 M251.538 266.571 C 255.115 267.564,257.528 272.409,256.295 276.121 C 253.558 284.364,241.389 282.570,241.389 273.924 C 241.389 270.642,243.868 266.989,246.443 266.477 C 247.639 266.239,250.537 266.292,251.538 266.571 M195.948 273.819 L 195.948 275.859 193.994 275.773 L 192.041 275.687 191.949 274.408 C 191.776 271.982,191.938 271.780,194.072 271.780 L 195.948 271.780 195.948 273.819 M179.595 274.397 C 187.272 276.607,192.748 283.091,194.068 291.534 L 194.238 292.619 196.974 292.619 L 199.711 292.619 199.711 291.765 C 199.711 286.721,204.427 279.196,209.262 276.525 C 222.019 269.478,236.776 276.463,239.417 290.797 L 239.753 292.619 241.584 292.619 L 243.415 292.619 243.415 294.645 L 243.415 296.671 241.424 296.671 L 239.434 296.671 238.947 298.625 C 238.014 302.368,235.045 307.177,232.492 309.082 L 231.693 309.678 245.423 309.687 C 262.268 309.698,260.492 309.010,260.492 315.524 C 260.492 321.397,260.586 321.274,256.096 321.274 L 252.967 321.274 252.967 327.786 L 252.967 334.298 256.059 334.298 C 260.551 334.298,260.492 334.220,260.492 340.137 C 260.492 345.705,260.405 345.876,257.544 345.876 L 255.753 345.876 256.488 346.671 C 259.534 349.969,260.287 352.403,260.431 359.412 C 260.637 369.466,257.983 374.248,250.507 377.288 L 248.480 378.112 194.313 378.129 C 141.458 378.146,140.132 378.133,139.538 377.596 C 138.968 377.080,138.929 376.752,138.929 372.446 C 138.929 366.424,138.928 366.425,143.408 366.425 L 146.465 366.425 146.388 359.986 L 146.310 353.546 143.096 353.401 C 138.713 353.203,138.929 353.491,138.929 347.853 C 138.929 342.242,139.141 341.823,141.988 341.823 L 143.626 341.823 142.566 340.738 C 138.729 336.809,137.412 323.999,140.283 318.524 C 140.533 318.046,140.923 317.305,141.148 316.877 C 143.718 312.005,148.764 309.696,156.842 309.696 L 161.875 309.696 160.586 308.466 C 157.426 305.450,155.241 301.557,154.422 297.481 C 154.272 296.734,154.175 296.694,152.313 296.612 L 150.362 296.527 150.362 294.645 L 150.362 292.764 152.243 292.619 L 154.124 292.475 154.326 290.848 C 155.754 279.354,168.342 271.158,179.595 274.397 M279.968 284.678 C 276.088 285.528,272.790 288.999,272.522 292.513 C 272.066 298.472,287.909 300.496,300.789 296.123 C 305.233 294.614,307.357 293.018,305.644 292.475 C 305.326 292.374,305.065 292.169,305.065 292.021 C 305.065 291.873,304.881 291.751,304.655 291.751 C 304.430 291.751,304.202 291.634,304.149 291.492 C 303.991 291.067,299.399 288.390,298.408 288.145 C 298.329 288.125,297.873 287.903,297.395 287.652 C 292.950 285.314,284.020 283.790,279.968 284.678 M193.509 298.625 C 192.632 302.172,189.193 307.796,187.273 308.823 C 185.830 309.596,186.948 309.696,196.995 309.696 L 207.304 309.696 205.426 307.790 C 202.773 305.097,200.916 301.722,199.987 297.902 L 199.688 296.671 196.840 296.671 L 193.992 296.671 193.509 298.625 " stroke="none" fill="#35b4fb" fill-rule="evenodd"></path><path id="path1" d="M148.974 259.986 C 148.623 260.344,147.706 261.810,146.937 263.243 L 145.538 265.849 142.619 267.440 C 138.036 269.938,138.022 270.696,142.514 273.237 C 145.612 274.989,145.850 275.236,147.466 278.382 C 149.534 282.405,150.648 282.318,153.030 277.949 L 154.681 274.921 157.804 273.180 C 162.342 270.651,162.282 269.991,157.257 267.177 L 154.602 265.689 153.131 262.961 C 151.187 259.354,150.250 258.684,148.974 259.986 M209.262 266.281 L 209.262 268.017 211.143 268.017 L 213.025 268.017 213.025 266.281 L 213.025 264.544 211.143 264.544 L 209.262 264.544 209.262 266.281 M151.245 266.950 C 151.902 268.067,152.514 268.660,153.633 269.266 C 155.503 270.278,155.500 270.363,153.551 271.463 C 152.312 272.162,151.805 272.671,151.241 273.785 C 150.262 275.717,150.127 275.740,149.247 274.122 C 148.468 272.693,147.088 271.428,145.751 270.919 C 144.682 270.513,144.811 270.273,146.615 269.310 C 147.943 268.601,148.378 268.162,149.118 266.782 C 149.611 265.864,150.092 265.188,150.188 265.281 C 150.283 265.373,150.759 266.124,151.245 266.950 M246.709 266.812 C 244.086 267.718,242.495 269.397,241.824 271.964 C 239.918 279.262,248.953 284.408,254.185 279.003 C 259.574 273.436,253.972 264.302,246.709 266.812 M250.765 270.482 C 253.250 271.661,253.349 275.666,250.929 277.095 C 248.601 278.471,245.534 276.992,245.236 274.351 C 244.881 271.205,247.875 269.111,250.765 270.482 M192.185 273.806 L 192.185 275.543 194.067 275.543 L 195.948 275.543 195.948 273.806 L 195.948 272.069 194.067 272.069 L 192.185 272.069 192.185 273.806 M172.214 273.982 C 162.675 275.702,156.331 281.455,154.855 289.725 C 154.226 293.250,154.491 292.909,152.382 292.909 L 150.507 292.909 150.507 294.645 L 150.507 296.382 152.512 296.382 L 154.518 296.382 154.857 298.046 C 155.587 301.621,157.363 304.757,160.415 307.861 L 162.452 309.934 156.407 310.038 C 149.003 310.166,146.275 311.138,142.932 314.838 C 137.817 320.500,137.678 334.756,142.682 340.441 C 144.168 342.129,144.174 342.113,142.113 342.113 C 139.324 342.113,139.219 342.317,139.219 347.736 L 139.219 352.201 139.981 352.801 C 140.641 353.320,141.147 353.401,143.744 353.401 L 146.744 353.401 146.744 360.058 L 146.744 366.715 143.744 366.715 C 141.147 366.715,140.641 366.796,139.981 367.315 L 139.219 367.915 139.223 372.308 C 139.228 376.919,139.271 377.136,140.285 377.670 C 141.332 378.222,245.812 378.129,248.430 377.574 C 252.803 376.648,256.861 373.467,258.719 369.509 C 261.687 363.188,260.581 351.625,256.601 347.371 L 255.267 345.944 257.195 345.821 C 260.093 345.637,260.203 345.426,260.203 340.055 C 260.203 334.464,260.300 334.588,255.861 334.588 L 252.677 334.588 252.677 327.931 L 252.677 321.274 254.920 321.232 C 260.352 321.132,260.203 321.296,260.203 315.453 C 260.203 309.333,261.982 309.986,245.297 309.986 C 237.735 309.986,231.548 309.904,231.548 309.803 C 231.548 309.703,232.252 308.945,233.112 308.119 C 236.007 305.337,237.933 301.768,239.250 296.744 C 239.314 296.501,239.967 296.382,241.235 296.382 L 243.126 296.382 243.126 294.645 L 243.126 292.909 241.262 292.909 L 239.399 292.909 239.222 291.534 C 236.688 271.760,210.331 267.438,201.714 285.384 C 200.942 286.990,200.549 288.418,199.823 292.258 C 199.705 292.881,199.577 292.909,196.824 292.909 L 193.948 292.909 193.782 291.823 C 192.835 285.631,190.397 281.294,186.038 278.048 C 182.089 275.107,175.965 273.306,172.214 273.982 M177.695 277.999 C 194.323 281.497,194.310 305.244,177.678 309.450 C 174.172 310.337,167.020 309.362,166.474 307.924 C 166.421 307.784,166.225 307.670,166.040 307.670 C 165.326 307.669,162.367 305.015,161.098 303.237 C 152.436 291.098,163.073 274.923,177.695 277.999 M223.242 278.039 C 235.980 280.916,240.071 297.225,230.228 305.889 C 223.154 312.115,211.948 310.873,206.574 303.267 C 197.899 290.989,208.635 274.740,223.242 278.039 M217.656 281.657 C 212.415 282.507,208.272 286.914,207.416 292.547 L 207.229 293.777 209.114 293.777 C 210.971 293.777,210.999 293.766,211.021 292.981 C 211.120 289.458,214.437 285.928,218.307 285.226 L 219.392 285.030 219.392 283.181 C 219.392 282.164,219.360 281.347,219.320 281.365 C 219.280 281.384,218.531 281.515,217.656 281.657 M170.250 282.168 C 165.585 283.780,161.911 288.732,161.800 293.560 C 161.797 293.679,162.641 293.777,163.676 293.777 C 165.393 293.777,165.557 293.724,165.557 293.170 C 165.557 289.533,169.859 285.094,173.383 285.094 C 173.884 285.094,173.951 284.890,173.951 283.357 L 173.951 281.621 172.865 281.630 C 172.268 281.635,171.092 281.878,170.250 282.168 M200.428 298.470 C 201.157 301.672,202.939 304.815,205.606 307.598 L 207.895 309.986 197.001 309.986 C 191.009 309.986,186.107 309.906,186.107 309.809 C 186.107 309.713,186.814 308.937,187.679 308.086 C 190.319 305.488,193.292 300.372,193.333 298.355 C 193.370 296.558,193.690 296.382,196.931 296.382 L 199.954 296.382 200.428 298.470 M256.440 315.481 L 256.440 317.503 204.848 317.579 L 153.256 317.656 151.809 318.427 C 148.141 320.381,146.889 322.799,146.889 327.931 C 146.889 333.159,148.240 335.608,152.101 337.376 L 153.578 338.052 205.009 338.065 L 256.440 338.079 256.440 340.096 L 256.440 342.113 204.559 342.109 C 148.407 342.106,151.142 342.181,148.384 340.565 C 144.228 338.129,142.695 334.686,142.695 327.786 C 142.695 319.442,145.720 314.925,152.098 313.745 C 152.735 313.628,176.473 313.515,204.848 313.495 L 256.440 313.459 256.440 315.481 M248.915 327.934 L 248.915 334.594 201.363 334.519 L 153.812 334.443 152.584 333.471 C 149.351 330.910,149.666 323.874,153.103 321.879 C 154.121 321.289,154.293 321.287,201.520 321.280 L 248.915 321.274 248.915 327.934 M182.634 328.799 L 182.634 330.535 207.236 330.535 L 231.838 330.535 231.838 328.799 L 231.838 327.062 207.236 327.062 L 182.634 327.062 182.634 328.799 M249.901 346.675 C 252.230 347.750,254.265 349.699,255.342 351.887 L 256.295 353.823 256.295 360.052 C 256.295 368.362,255.141 370.802,250.073 373.204 L 248.191 374.096 195.441 374.171 L 142.692 374.246 142.692 372.362 C 142.692 371.326,142.724 370.453,142.764 370.422 C 142.804 370.392,166.085 370.294,194.501 370.205 L 246.165 370.043 247.566 369.354 C 254.619 365.881,254.518 353.688,247.409 350.476 L 245.876 349.783 194.284 349.707 L 142.692 349.632 142.692 347.947 C 142.692 347.020,142.780 346.173,142.888 346.065 C 142.996 345.958,166.798 345.903,195.782 345.945 L 248.480 346.020 249.901 346.675 M245.812 353.799 C 249.356 355.315,250.304 362.679,247.288 365.256 C 245.532 366.757,246.972 366.715,197.043 366.715 L 150.507 366.715 150.507 363.821 L 150.507 360.926 174.096 360.926 L 197.685 360.926 197.685 359.045 L 197.685 357.164 174.096 357.164 L 150.507 357.164 150.507 355.282 L 150.507 353.401 197.694 353.401 C 237.118 353.401,245.034 353.466,245.812 353.799 " stroke="none" fill="#040709" fill-rule="evenodd"></path><path id="path2" d="M247.597 270.401 C 244.620 271.986,244.555 275.936,247.486 277.108 C 251.671 278.783,254.638 273.258,250.878 270.794 C 250.007 270.223,248.312 270.021,247.597 270.401 M172.037 277.852 C 161.118 279.494,155.038 291.031,159.898 300.889 C 166.343 313.964,186.033 311.836,189.557 297.685 C 192.263 286.819,182.899 276.219,172.037 277.852 M217.392 277.891 C 201.841 280.528,198.510 301.161,212.538 307.951 C 226.323 314.623,240.570 300.379,233.838 286.656 C 230.881 280.628,223.729 276.816,217.392 277.891 M174.240 283.357 L 174.240 285.384 173.219 285.384 C 170.325 285.384,167.078 288.213,166.080 291.605 L 165.441 293.777 163.618 293.777 C 161.492 293.777,161.420 293.601,162.244 290.437 C 163.523 285.524,168.472 281.458,173.300 281.352 L 174.240 281.331 174.240 283.357 M219.682 283.357 L 219.682 285.384 218.660 285.384 C 215.323 285.384,212.127 288.623,211.163 292.981 C 210.993 293.752,210.926 293.777,209.072 293.777 L 207.156 293.777 207.344 292.180 C 208.025 286.384,213.138 281.592,218.886 281.363 C 219.681 281.331,219.682 281.332,219.682 283.357 M154.306 321.707 C 149.849 323.098,148.978 330.765,152.967 333.488 L 154.124 334.279 201.525 334.289 L 248.926 334.298 248.848 327.858 L 248.770 321.418 202.171 321.365 C 163.488 321.320,155.357 321.378,154.306 321.707 M231.838 328.799 L 231.838 330.825 207.236 330.825 L 182.634 330.825 182.634 328.799 L 182.634 326.773 207.236 326.773 L 231.838 326.773 231.838 328.799 M150.507 355.278 L 150.507 357.164 174.240 357.164 L 197.974 357.164 197.974 359.045 L 197.974 360.926 174.240 360.926 L 150.507 360.926 150.507 363.676 L 150.507 366.425 197.696 366.425 C 251.151 366.425,246.253 366.654,247.954 364.082 C 249.360 361.958,248.922 354.673,247.444 355.586 C 247.290 355.681,247.199 355.597,247.243 355.398 C 247.287 355.199,246.737 354.701,246.020 354.291 L 244.718 353.546 197.612 353.469 L 150.507 353.392 150.507 355.278 " stroke="none" fill="#8becd5" fill-rule="evenodd"></path><path id="path3" d="M183.286 175.832 C 183.289 176.469,183.348 176.695,183.417 176.335 C 183.487 175.975,183.484 175.454,183.412 175.178 C 183.339 174.901,183.283 175.195,183.286 175.832 M190.002 177.733 C 189.897 177.903,189.629 177.972,189.406 177.887 C 189.184 177.802,189.001 177.858,189.001 178.012 C 189.001 178.444,189.756 178.344,190.159 177.858 C 190.357 177.619,190.446 177.424,190.356 177.424 C 190.267 177.424,190.107 177.563,190.002 177.733 M263.501 244.718 C 263.501 246.946,263.546 247.820,263.602 246.659 C 263.657 245.498,263.656 243.674,263.601 242.607 C 263.545 241.539,263.500 242.489,263.501 244.718 M209.093 266.113 C 209.111 267.634,209.222 268.144,209.551 268.233 C 209.856 268.316,209.883 268.278,209.639 268.104 C 209.449 267.969,209.243 267.014,209.181 265.984 L 209.069 264.110 209.093 266.113 M192.692 271.984 C 193.050 272.053,193.636 272.053,193.994 271.984 C 194.352 271.915,194.059 271.859,193.343 271.859 C 192.627 271.859,192.334 271.915,192.692 271.984 M191.985 273.951 C 191.987 274.906,192.041 275.262,192.106 274.742 C 192.170 274.221,192.169 273.440,192.103 273.005 C 192.037 272.570,191.984 272.996,191.985 273.951 M256.527 273.806 C 256.527 274.682,256.581 275.040,256.647 274.602 C 256.714 274.164,256.714 273.448,256.647 273.010 C 256.581 272.572,256.527 272.931,256.527 273.806 M207.903 277.445 L 207.091 278.190 208.032 277.535 C 208.549 277.175,208.973 276.840,208.973 276.791 C 208.973 276.562,208.652 276.758,207.903 277.445 M205.630 279.378 L 204.486 280.608 205.716 279.464 C 206.393 278.834,206.946 278.281,206.946 278.234 C 206.946 278.015,206.694 278.234,205.630 279.378 M149.306 281.405 C 149.452 281.551,149.880 281.621,150.256 281.562 C 150.835 281.471,150.795 281.430,149.991 281.297 C 149.416 281.202,149.146 281.244,149.306 281.405 M185.239 282.344 C 185.779 282.902,186.286 283.357,186.365 283.357 C 186.445 283.357,186.068 282.902,185.528 282.344 C 184.988 281.787,184.481 281.331,184.402 281.331 C 184.322 281.331,184.699 281.787,185.239 282.344 M230.825 282.489 C 231.447 283.126,232.021 283.647,232.100 283.647 C 232.180 283.647,231.736 283.126,231.114 282.489 C 230.493 281.852,229.919 281.331,229.839 281.331 C 229.760 281.331,230.203 281.852,230.825 282.489 M248.553 281.536 C 248.911 281.605,249.497 281.605,249.855 281.536 C 250.213 281.467,249.920 281.410,249.204 281.410 C 248.488 281.410,248.195 281.467,248.553 281.536 M150.336 293.016 C 150.253 293.234,150.233 294.113,150.292 294.969 L 150.399 296.527 150.453 294.732 L 150.507 292.938 152.171 292.833 L 153.835 292.729 152.162 292.674 C 150.973 292.635,150.444 292.734,150.336 293.016 M195.586 292.831 C 196.263 292.892,197.370 292.892,198.046 292.831 C 198.723 292.770,198.169 292.721,196.816 292.721 C 195.463 292.721,194.910 292.770,195.586 292.831 M240.810 292.781 C 241.906 293.019,243.415 293.060,243.415 292.851 C 243.415 292.723,242.732 292.635,241.896 292.653 C 241.060 292.671,240.572 292.729,240.810 292.781 M187.970 308.032 L 187.120 308.973 188.061 308.122 C 188.578 307.655,189.001 307.232,189.001 307.182 C 189.001 306.958,188.763 307.155,187.970 308.032 M233.270 308.177 L 232.272 309.262 233.357 308.264 C 234.368 307.336,234.576 307.091,234.355 307.091 C 234.307 307.091,233.818 307.580,233.270 308.177 M151.230 314.155 C 145.676 315.529,143.232 319.231,143.034 326.570 C 142.812 334.841,144.250 338.185,149.123 340.730 L 150.941 341.679 203.690 341.754 L 256.440 341.830 256.440 340.090 L 256.440 338.350 205.217 338.350 L 153.993 338.350 152.334 337.699 C 144.561 334.649,144.365 321.518,152.040 318.047 L 153.546 317.366 205.007 317.291 L 256.469 317.215 256.382 315.554 L 256.295 313.893 204.486 313.845 C 164.168 313.807,152.356 313.876,151.230 314.155 M252.801 327.786 C 252.802 331.447,252.843 332.905,252.894 331.026 C 252.944 329.146,252.944 326.151,252.893 324.369 C 252.842 322.587,252.801 324.124,252.801 327.786 M258.032 334.513 C 259.352 334.647,260.187 335.268,260.236 336.152 C 260.265 336.677,260.288 336.687,260.407 336.226 C 260.649 335.287,259.403 334.291,258.054 334.347 L 256.874 334.395 258.032 334.513 M141.172 342.033 C 141.690 342.097,142.536 342.097,143.054 342.033 C 143.571 341.969,143.148 341.916,142.113 341.916 C 141.078 341.916,140.655 341.969,141.172 342.033 M143.174 346.068 C 143.068 346.175,142.981 347.021,142.981 347.950 L 142.981 349.638 194.428 349.638 L 245.876 349.639 247.612 350.462 C 251.377 352.246,252.820 354.865,252.821 359.919 C 252.822 365.091,251.373 367.739,247.476 369.680 L 246.165 370.333 194.573 370.409 L 142.981 370.485 142.981 372.363 L 142.981 374.240 194.284 374.235 C 250.058 374.230,248.026 374.287,250.835 372.641 C 254.993 370.204,256.428 367.003,256.436 360.144 C 256.445 351.809,253.794 347.580,247.763 346.311 C 245.588 345.853,143.626 345.617,143.174 346.068 M255.572 345.966 C 255.572 346.016,255.995 346.439,256.512 346.907 L 257.453 347.757 256.603 346.816 C 255.810 345.939,255.572 345.743,255.572 345.966 M146.393 359.903 L 146.475 366.406 143.353 366.504 L 140.232 366.602 143.415 366.586 L 146.599 366.570 146.677 359.986 C 146.720 356.364,146.655 353.401,146.532 353.401 C 146.410 353.400,146.347 356.327,146.393 359.903 M260.270 355.716 C 260.270 356.274,260.329 356.501,260.402 356.223 C 260.475 355.944,260.475 355.488,260.402 355.210 C 260.329 354.931,260.270 355.159,260.270 355.716 M197.779 359.045 C 197.781 360.159,197.833 360.580,197.896 359.979 C 197.958 359.379,197.957 358.467,197.893 357.953 C 197.829 357.439,197.778 357.931,197.779 359.045 M260.276 364.544 C 260.279 365.181,260.338 365.407,260.407 365.047 C 260.477 364.687,260.474 364.166,260.401 363.890 C 260.329 363.613,260.272 363.907,260.276 364.544 M142.185 378.202 C 142.464 378.275,142.920 378.275,143.198 378.202 C 143.477 378.130,143.249 378.070,142.692 378.070 C 142.135 378.070,141.907 378.130,142.185 378.202 M146.382 378.207 C 146.740 378.276,147.326 378.276,147.685 378.207 C 148.043 378.138,147.750 378.082,147.033 378.082 C 146.317 378.082,146.024 378.138,146.382 378.207 M151.013 378.207 C 151.371 378.276,151.957 378.276,152.315 378.207 C 152.674 378.138,152.381 378.082,151.664 378.082 C 150.948 378.082,150.655 378.138,151.013 378.207 M155.644 378.207 C 156.002 378.276,156.588 378.276,156.946 378.207 C 157.305 378.138,157.012 378.082,156.295 378.082 C 155.579 378.082,155.286 378.138,155.644 378.207 M160.275 378.207 C 160.633 378.276,161.219 378.276,161.577 378.207 C 161.936 378.138,161.643 378.082,160.926 378.082 C 160.210 378.082,159.917 378.138,160.275 378.207 M164.906 378.207 C 165.264 378.276,165.850 378.276,166.208 378.207 C 166.567 378.138,166.274 378.082,165.557 378.082 C 164.841 378.082,164.548 378.138,164.906 378.207 M169.537 378.207 C 169.895 378.276,170.481 378.276,170.839 378.207 C 171.198 378.138,170.904 378.082,170.188 378.082 C 169.472 378.082,169.179 378.138,169.537 378.207 M174.168 378.207 C 174.526 378.276,175.112 378.276,175.470 378.207 C 175.829 378.138,175.535 378.082,174.819 378.082 C 174.103 378.082,173.810 378.138,174.168 378.207 M178.799 378.207 C 179.157 378.276,179.743 378.276,180.101 378.207 C 180.459 378.138,180.166 378.082,179.450 378.082 C 178.734 378.082,178.441 378.138,178.799 378.207 M183.430 378.207 C 183.788 378.276,184.374 378.276,184.732 378.207 C 185.090 378.138,184.797 378.082,184.081 378.082 C 183.365 378.082,183.072 378.138,183.430 378.207 M188.061 378.207 C 188.419 378.276,189.005 378.276,189.363 378.207 C 189.721 378.138,189.428 378.082,188.712 378.082 C 187.996 378.082,187.703 378.138,188.061 378.207 M192.692 378.207 C 193.050 378.276,193.636 378.276,193.994 378.207 C 194.352 378.138,194.059 378.082,193.343 378.082 C 192.627 378.082,192.334 378.138,192.692 378.207 M197.323 378.207 C 197.681 378.276,198.267 378.276,198.625 378.207 C 198.983 378.138,198.690 378.082,197.974 378.082 C 197.258 378.082,196.965 378.138,197.323 378.207 M201.954 378.207 C 202.312 378.276,202.898 378.276,203.256 378.207 C 203.614 378.138,203.321 378.082,202.605 378.082 C 201.889 378.082,201.596 378.138,201.954 378.207 M206.585 378.207 C 206.943 378.276,207.529 378.276,207.887 378.207 C 208.245 378.138,207.952 378.082,207.236 378.082 C 206.520 378.082,206.226 378.138,206.585 378.207 M211.216 378.207 C 211.574 378.276,212.160 378.276,212.518 378.207 C 212.876 378.138,212.583 378.082,211.867 378.082 C 211.151 378.082,210.857 378.138,211.216 378.207 M215.847 378.207 C 216.205 378.276,216.791 378.276,217.149 378.207 C 217.507 378.138,217.214 378.082,216.498 378.082 C 215.781 378.082,215.488 378.138,215.847 378.207 M220.478 378.207 C 220.836 378.276,221.422 378.276,221.780 378.207 C 222.138 378.138,221.845 378.082,221.129 378.082 C 220.412 378.082,220.119 378.138,220.478 378.207 M225.109 378.207 C 225.467 378.276,226.053 378.276,226.411 378.207 C 226.769 378.138,226.476 378.082,225.760 378.082 C 225.043 378.082,224.750 378.138,225.109 378.207 M229.740 378.207 C 230.098 378.276,230.684 378.276,231.042 378.207 C 231.400 378.138,231.107 378.082,230.391 378.082 C 229.674 378.082,229.381 378.138,229.740 378.207 M234.370 378.207 C 234.729 378.276,235.315 378.276,235.673 378.207 C 236.031 378.138,235.738 378.082,235.022 378.082 C 234.305 378.082,234.012 378.138,234.370 378.207 M239.001 378.207 C 239.360 378.276,239.946 378.276,240.304 378.207 C 240.662 378.138,240.369 378.082,239.653 378.082 C 238.936 378.082,238.643 378.138,239.001 378.207 M243.632 378.207 C 243.991 378.276,244.577 378.276,244.935 378.207 C 245.293 378.138,245.000 378.082,244.284 378.082 C 243.567 378.082,243.274 378.138,243.632 378.207 " stroke="none" fill="#1d98a6" fill-rule="evenodd"></path><path id="path4" d="M210.051 264.464 C 210.565 264.528,211.477 264.529,212.077 264.466 C 212.678 264.403,212.258 264.351,211.143 264.350 C 210.029 264.348,209.538 264.400,210.051 264.464 M210.781 268.217 C 211.060 268.290,211.516 268.290,211.795 268.217 C 212.073 268.144,211.845 268.085,211.288 268.085 C 210.731 268.085,210.503 268.144,210.781 268.217 M147.033 271.571 C 147.033 271.626,147.457 271.981,147.974 272.360 C 148.556 272.786,148.758 272.856,148.504 272.543 C 148.119 272.069,147.033 271.351,147.033 271.571 M159.407 272.235 C 158.325 272.822,158.390 273.067,159.479 272.504 C 159.957 272.257,160.347 271.993,160.347 271.917 C 160.347 271.731,160.316 271.742,159.407 272.235 M192.975 275.752 C 193.489 275.816,194.400 275.817,195.001 275.754 C 195.601 275.691,195.181 275.639,194.067 275.638 C 192.952 275.636,192.461 275.688,192.975 275.752 M184.949 277.081 C 184.949 277.152,185.428 277.575,186.012 278.021 C 186.596 278.467,186.983 278.684,186.871 278.503 C 186.642 278.132,184.949 276.879,184.949 277.081 M232.706 278.817 C 232.706 278.867,233.130 279.290,233.647 279.758 L 234.588 280.608 233.737 279.667 C 232.945 278.790,232.706 278.593,232.706 278.817 M208.104 282.344 C 207.401 283.061,206.891 283.647,206.971 283.647 C 207.050 283.647,207.691 283.061,208.394 282.344 C 209.097 281.628,209.607 281.042,209.527 281.042 C 209.448 281.042,208.807 281.628,208.104 282.344 M173.142 281.537 C 173.881 281.650,173.930 281.755,174.026 283.448 L 174.129 285.239 174.184 283.285 L 174.240 281.331 173.300 281.375 C 172.444 281.414,172.429 281.429,173.142 281.537 M219.487 283.213 C 219.488 284.327,219.541 284.747,219.603 284.147 C 219.666 283.546,219.665 282.635,219.601 282.121 C 219.537 281.607,219.486 282.098,219.487 283.213 M210.257 285.745 L 209.407 286.686 210.347 285.836 C 210.865 285.368,211.288 284.945,211.288 284.895 C 211.288 284.672,211.049 284.868,210.257 285.745 M193.700 291.172 C 193.700 291.729,193.759 291.957,193.832 291.679 C 193.905 291.400,193.905 290.944,193.832 290.666 C 193.759 290.387,193.700 290.615,193.700 291.172 M235.668 293.777 C 235.668 294.334,235.727 294.562,235.800 294.284 C 235.873 294.005,235.873 293.549,235.800 293.271 C 235.727 292.992,235.668 293.220,235.668 293.777 M243.178 294.718 L 243.126 296.382 241.262 296.382 C 240.236 296.382,239.337 296.480,239.262 296.599 C 239.188 296.719,240.035 296.773,241.145 296.719 C 243.425 296.610,243.501 296.531,243.340 294.464 L 243.230 293.054 243.178 294.718 M151.447 296.593 C 152.044 296.655,153.021 296.655,153.618 296.593 C 154.215 296.530,153.726 296.479,152.533 296.479 C 151.339 296.479,150.850 296.530,151.447 296.593 M193.821 296.599 C 193.747 296.719,194.683 296.781,195.902 296.738 C 199.791 296.600,200.237 296.481,197.050 296.431 C 195.348 296.404,193.895 296.480,193.821 296.599 M185.239 305.210 C 184.536 305.926,184.026 306.512,184.105 306.512 C 184.185 306.512,184.825 305.926,185.528 305.210 C 186.231 304.493,186.741 303.907,186.662 303.907 C 186.582 303.907,185.942 304.493,185.239 305.210 M230.680 305.210 C 229.977 305.926,229.467 306.512,229.547 306.512 C 229.626 306.512,230.267 305.926,230.970 305.210 C 231.673 304.493,232.183 303.907,232.103 303.907 C 232.024 303.907,231.383 304.493,230.680 305.210 M162.663 305.210 C 163.203 305.767,163.710 306.223,163.789 306.223 C 163.869 306.223,163.492 305.767,162.952 305.210 C 162.412 304.653,161.905 304.197,161.826 304.197 C 161.746 304.197,162.123 304.653,162.663 305.210 M208.104 305.210 C 208.644 305.767,209.151 306.223,209.231 306.223 C 209.310 306.223,208.934 305.767,208.394 305.210 C 207.854 304.653,207.347 304.197,207.267 304.197 C 207.187 304.197,207.564 304.653,208.104 305.210 M159.913 307.670 C 160.535 308.307,161.109 308.828,161.188 308.828 C 161.268 308.828,160.824 308.307,160.203 307.670 C 159.581 307.033,159.007 306.512,158.927 306.512 C 158.848 306.512,159.291 307.033,159.913 307.670 M205.355 307.670 C 205.976 308.307,206.550 308.828,206.630 308.828 C 206.709 308.828,206.266 308.307,205.644 307.670 C 205.022 307.033,204.448 306.512,204.369 306.512 C 204.289 306.512,204.733 307.033,205.355 307.670 M186.586 309.068 C 186.323 309.359,186.107 309.684,186.107 309.791 C 186.107 309.898,191.024 309.955,197.033 309.917 L 207.959 309.848 197.136 309.769 C 186.356 309.689,186.315 309.687,186.834 309.114 C 187.120 308.797,187.289 308.538,187.210 308.538 C 187.130 308.538,186.850 308.777,186.586 309.068 M232.027 309.068 C 231.764 309.359,231.548 309.684,231.548 309.791 C 231.548 309.898,237.703 309.954,245.224 309.916 L 258.900 309.847 245.327 309.768 C 231.797 309.691,231.755 309.688,232.275 309.114 C 232.561 308.798,232.731 308.538,232.651 308.538 C 232.572 308.538,232.291 308.777,232.027 309.068 M154.920 309.912 C 156.313 309.965,158.593 309.965,159.986 309.912 C 161.378 309.859,160.239 309.815,157.453 309.815 C 154.667 309.815,153.527 309.859,154.920 309.912 M173.004 309.905 C 173.517 309.969,174.429 309.970,175.030 309.907 C 175.630 309.845,175.210 309.792,174.096 309.791 C 172.981 309.790,172.490 309.841,173.004 309.905 M218.741 309.905 C 219.258 309.970,220.105 309.970,220.622 309.905 C 221.140 309.841,220.716 309.789,219.682 309.789 C 218.647 309.789,218.224 309.841,218.741 309.905 M260.317 315.630 C 260.317 317.858,260.363 318.732,260.418 317.571 C 260.473 316.409,260.472 314.586,260.417 313.518 C 260.361 312.451,260.316 313.401,260.317 315.630 M171.635 313.674 C 221.270 313.871,256.440 313.872,256.440 313.676 C 256.440 313.556,233.158 313.490,204.703 313.529 C 176.248 313.568,161.368 313.633,171.635 313.674 M150.796 314.042 C 150.490 314.242,150.662 314.271,151.375 314.140 C 152.623 313.911,152.859 313.747,151.930 313.753 C 151.545 313.755,151.035 313.885,150.796 314.042 M145.876 317.077 C 145.172 317.793,144.662 318.379,144.742 318.379 C 144.822 318.379,145.462 317.793,146.165 317.077 C 146.868 316.360,147.378 315.774,147.299 315.774 C 147.219 315.774,146.579 316.360,145.876 317.077 M153.745 317.467 C 153.136 317.639,222.330 317.614,246.454 317.434 C 252.026 317.392,233.596 317.341,205.499 317.319 C 177.402 317.297,154.113 317.364,153.745 317.467 M151.520 318.279 C 150.060 319.043,147.970 321.284,147.266 322.839 C 146.486 324.562,146.270 331.015,146.956 332.127 C 147.265 332.628,147.284 332.570,147.101 331.693 C 145.856 325.750,147.705 320.540,151.809 318.423 C 152.446 318.095,152.836 317.825,152.677 317.825 C 152.518 317.824,151.997 318.028,151.520 318.279 M139.044 327.641 C 139.044 329.949,139.089 330.894,139.144 329.740 C 139.199 328.585,139.199 326.697,139.144 325.543 C 139.089 324.389,139.044 325.333,139.044 327.641 M142.806 327.786 C 142.806 330.014,142.852 330.888,142.907 329.727 C 142.962 328.566,142.962 326.742,142.906 325.675 C 142.851 324.607,142.805 325.557,142.806 327.786 M194.863 326.990 C 201.668 327.033,212.804 327.033,219.609 326.990 C 226.415 326.947,220.847 326.911,207.236 326.911 C 193.625 326.911,188.057 326.947,194.863 326.990 M194.863 330.752 C 201.668 330.796,212.804 330.796,219.609 330.752 C 226.415 330.709,220.847 330.674,207.236 330.674 C 193.625 330.674,188.057 330.709,194.863 330.752 M143.002 332.875 C 143.013 333.260,143.140 333.835,143.284 334.153 C 143.467 334.557,143.493 334.381,143.370 333.575 C 143.165 332.231,142.972 331.864,143.002 332.875 M147.327 332.996 C 147.327 333.155,147.585 333.676,147.902 334.153 C 148.218 334.631,148.477 334.891,148.477 334.732 C 148.477 334.573,148.218 334.052,147.902 333.575 C 147.585 333.097,147.327 332.836,147.327 332.996 M155.068 334.503 C 155.429 334.572,155.950 334.569,156.226 334.497 C 156.503 334.425,156.208 334.368,155.572 334.371 C 154.935 334.374,154.708 334.434,155.068 334.503 M179.667 334.515 C 192.283 334.557,212.927 334.557,225.543 334.515 C 238.158 334.473,227.836 334.439,202.605 334.439 C 177.373 334.439,167.051 334.473,179.667 334.515 M255.644 334.498 C 255.923 334.570,256.378 334.570,256.657 334.498 C 256.936 334.425,256.708 334.365,256.151 334.365 C 255.593 334.365,255.365 334.425,255.644 334.498 M143.560 334.988 C 143.560 335.298,144.421 336.903,144.588 336.903 C 144.668 336.903,144.517 336.480,144.254 335.962 C 143.717 334.906,143.560 334.686,143.560 334.988 M149.887 336.252 C 150.440 336.769,151.030 337.192,151.198 337.192 C 151.366 337.192,151.182 336.977,150.788 336.713 C 150.394 336.449,149.804 336.026,149.477 335.772 C 149.149 335.519,149.334 335.734,149.887 336.252 M260.312 339.797 C 260.312 341.628,260.359 342.377,260.416 341.462 C 260.474 340.546,260.474 339.048,260.416 338.133 C 260.359 337.218,260.312 337.967,260.312 339.797 M145.296 337.988 C 145.675 338.506,146.030 338.929,146.085 338.929 C 146.305 338.929,145.587 337.844,145.112 337.458 C 144.800 337.204,144.870 337.406,145.296 337.988 M178.822 338.278 C 192.724 338.319,215.386 338.319,229.184 338.278 C 242.981 338.236,231.606 338.202,203.907 338.202 C 176.208 338.202,164.920 338.236,178.822 338.278 M147.902 340.229 C 147.902 340.426,150.253 341.595,150.383 341.464 C 150.444 341.403,149.911 341.070,149.198 340.724 C 148.485 340.378,147.902 340.155,147.902 340.229 M178.220 342.041 C 192.587 342.082,216.096 342.082,230.463 342.041 C 244.830 341.999,233.075 341.965,204.342 341.965 C 175.608 341.965,163.853 341.999,178.220 342.041 M139.045 347.757 C 139.045 350.145,139.090 351.083,139.144 349.842 C 139.199 348.601,139.199 346.647,139.144 345.501 C 139.089 344.354,139.044 345.369,139.045 347.757 M142.811 346.272 C 142.727 346.490,142.701 347.369,142.752 348.226 L 142.846 349.783 142.986 347.829 C 143.127 345.862,143.091 345.542,142.811 346.272 M247.033 346.165 C 248.258 346.477,249.309 346.477,248.336 346.165 C 247.938 346.038,247.287 345.936,246.889 345.939 C 246.239 345.943,246.253 345.967,247.033 346.165 M256.151 346.889 C 256.691 347.446,257.197 347.902,257.277 347.902 C 257.357 347.902,256.980 347.446,256.440 346.889 C 255.900 346.331,255.393 345.876,255.313 345.876 C 255.234 345.876,255.610 346.331,256.151 346.889 M250.080 346.835 C 250.513 347.304,252.457 348.478,252.112 348.062 C 251.889 347.794,251.306 347.371,250.817 347.122 C 250.328 346.874,249.996 346.744,250.080 346.835 M253.600 349.638 C 254.168 350.355,254.903 351.462,255.234 352.098 C 255.565 352.735,255.840 353.126,255.846 352.967 C 255.864 352.433,254.195 349.791,253.377 349.059 C 252.707 348.460,252.745 348.559,253.600 349.638 M250.053 352.388 C 251.761 354.340,252.012 354.572,251.303 353.546 C 250.974 353.068,250.273 352.287,249.746 351.809 C 249.037 351.167,249.118 351.319,250.053 352.388 M256.051 354.414 C 256.148 355.051,256.275 355.626,256.334 355.692 C 256.553 355.941,256.389 354.391,256.137 353.835 C 255.954 353.432,255.928 353.607,256.051 354.414 M251.837 354.559 C 251.826 354.638,252.002 355.289,252.228 356.006 C 252.454 356.722,252.641 357.048,252.645 356.729 C 252.650 356.225,251.887 354.175,251.837 354.559 M260.314 360.058 C 260.314 362.048,260.360 362.862,260.417 361.867 C 260.473 360.872,260.473 359.244,260.417 358.249 C 260.360 357.254,260.314 358.068,260.314 360.058 M252.780 359.913 C 252.779 361.346,252.828 361.968,252.889 361.297 C 252.949 360.625,252.950 359.453,252.890 358.692 C 252.831 357.931,252.781 358.480,252.780 359.913 M256.186 364.834 C 256.162 365.152,256.076 365.738,255.994 366.136 L 255.845 366.860 256.155 366.150 C 256.325 365.759,256.412 365.173,256.347 364.847 C 256.232 364.270,256.228 364.270,256.186 364.834 M250.716 366.764 C 250.206 367.428,249.233 368.339,248.555 368.789 C 247.877 369.239,247.453 369.607,247.612 369.607 C 248.148 369.606,250.700 367.447,251.285 366.498 C 252.087 365.198,251.825 365.321,250.716 366.764 M173.901 366.643 C 186.848 366.684,207.948 366.684,220.790 366.643 C 233.632 366.601,223.039 366.567,197.250 366.567 C 171.462 366.567,160.955 366.601,173.901 366.643 M254.749 368.813 C 254.424 369.331,253.877 370.145,253.532 370.622 C 253.034 371.314,253.091 371.285,253.813 370.478 C 254.686 369.502,255.718 367.873,255.463 367.873 C 255.395 367.873,255.074 368.296,254.749 368.813 M139.045 372.359 C 139.045 374.747,139.090 375.685,139.144 374.444 C 139.199 373.203,139.199 371.249,139.144 370.103 C 139.089 368.956,139.044 369.971,139.045 372.359 M246.020 369.899 C 245.424 370.090,245.399 370.135,245.876 370.155 C 246.194 370.168,246.650 370.053,246.889 369.899 C 247.396 369.571,247.044 369.571,246.020 369.899 M172.576 370.405 C 185.908 370.447,207.724 370.447,221.056 370.405 C 234.389 370.364,223.480 370.329,196.816 370.329 C 170.152 370.329,159.244 370.364,172.576 370.405 M142.787 372.359 C 142.788 373.473,142.840 373.894,142.903 373.293 C 142.966 372.693,142.965 371.781,142.901 371.267 C 142.837 370.753,142.785 371.245,142.787 372.359 M251.664 372.106 C 251.144 372.548,251.037 372.725,251.399 372.545 C 251.929 372.282,252.924 371.329,252.640 371.356 C 252.581 371.362,252.142 371.699,251.664 372.106 M255.861 373.517 C 255.158 374.233,254.648 374.819,254.728 374.819 C 254.807 374.819,255.447 374.233,256.151 373.517 C 256.854 372.800,257.364 372.214,257.284 372.214 C 257.204 372.214,256.564 372.800,255.861 373.517 " stroke="none" fill="#346b65" fill-rule="evenodd"></path></g></svg>